<?xml version="1.0" encoding="utf-8"?>
<!-- Svg Vector Icons : http://www.onlinewebfonts.com/icon -->
<!DOCTYPE svg PUBLIC "-//W3C//DTD SVG 1.1//EN" "http://www.w3.org/Graphics/SVG/1.1/DTD/svg11.dtd">
<svg version="1.1" xmlns="http://www.w3.org/2000/svg" xmlns:xlink="http://www.w3.org/1999/xlink" x="0px" y="0px" viewBox="0 0 256 256" enable-background="new 0 0 256 256" xml:space="preserve">
<metadata> Svg Vector Icons : http://www.onlinewebfonts.com/icon </metadata>
<g><g><path fill="#000000" d="M156.2,126.3c19.8-10.2,33.4-30.9,33.4-54.7c0-34-27.6-61.6-61.6-61.6c-34,0-61.6,27.6-61.6,61.6c0,23.8,13.6,44.5,33.4,54.7C48.3,138.9,10,185.4,10,240.9c0,2.8,2.3,5.1,5.1,5.1c2.8,0,5.1-2.3,5.1-5.1c0-59.5,48.2-107.7,107.7-107.7s107.7,48.2,107.7,107.7c0,2.8,2.3,5.1,5.1,5.1c2.8,0,5.1-2.3,5.1-5.1C246,185.4,207.7,138.9,156.2,126.3z M76.7,71.6c0-28.3,23-51.3,51.3-51.3c28.3,0,51.3,23,51.3,51.3c0,28.3-23,51.3-51.3,51.3C99.7,122.9,76.7,99.9,76.7,71.6z"/></g></g>
</svg>